<svg id="Layer_1" data-name="Layer 1" xmlns="http://www.w3.org/2000/svg" viewBox="0 0 723.23 605.74"><defs><style>.cls-1,.cls-6{fill:#4b144b;}.cls-1,.cls-2,.cls-5{stroke:#fff;stroke-miterlimit:10;}.cls-1,.cls-2{stroke-width:8px;}.cls-2,.cls-4{fill:#44b59c;}.cls-3,.cls-5{fill:#fff;}.cls-5{stroke-width:0.2px;}</style></defs><path class="cls-1" d="M418.79,245.51h-54q3.45-45.12,34.39-73t73.59-27.86q40.44,0,66,23.17T564.25,228q0,54.48-57.69,84.81,20.7,14.54,30.07,29.46T546,381.35q0,38.72-32,67.31t-75.44,28.59q-33.76,0-64.22-22.43t-40.8-74.45h55q13.8,35,46.84,35,16.28,0,29.34-12.69t13.06-28.23q0-18.74-13.8-29.09T425.2,335l7.15-47.08q31.8-2,48.69-15t16.89-33.78q0-15.53-9.86-26t-24.9-10.48Q427.91,202.61,418.79,245.51Z"/><path class="cls-2" d="M333.52,415.37h90.6l-8.63,56.95h-215l124.58-138q32.73-36.32,46.27-56.09T384.92,241q0-17.22-12.62-29.77a40.92,40.92,0,0,0-29.91-12.55q-42.52,0-49.43,62.13H235.77q3.69-53.25,37.35-84.69t76.3-31.43q43.14,0,71.86,25.52T450,233.92q0,53.5-54.15,112.67Z"/><path class="cls-1" d="M173.33,144.68H280L225,467.89H158.79l44.86-266.51H163.72Z"/><rect class="cls-3" x="123.23" y="412.09" width="462.44" height="85.41"/><path class="cls-4" d="M165.44,425.31h7.77l13.72,53.95H176.49l-2.75-10.85h-20l-5.83,10.85H136.47Zm2,17.75L158.87,459H171.4Z"/><path class="cls-4" d="M200,425.31h13.88a31.55,31.55,0,0,1,11.39,2.34,20.38,20.38,0,0,1,9.86,8.22,25.3,25.3,0,0,1,3.74,13.76,31.37,31.37,0,0,1-2.67,13.07,27.67,27.67,0,0,1-16.32,15.16,35,35,0,0,1-10.56,1.4H192.07Zm9.57,11L205,468.16h4.07c6.57,0,11.26-1.72,14-5.21s4.15-8,4.15-13.48a12.69,12.69,0,0,0-3.78-9.62c-2.51-2.34-6-3.53-10.36-3.53Z"/><path class="cls-4" d="M255.88,425.31h10.27l5.55,30.32,15.2-30.32h10.35v53.95h-10V447.05l-16.44,32.21h-5.17l-6.08-33.61-11.39,33.61h-10.6Z"/><path class="cls-4" d="M309.66,425.31h11.1l-8,53.95H301.65Z"/><path class="cls-4" d="M356.79,431l-6,7.85a52.49,52.49,0,0,0-5.13-3.29,8.17,8.17,0,0,0-4-1.11,7.08,7.08,0,0,0-5,1.81,5.83,5.83,0,0,0-2,4.52,5.35,5.35,0,0,0,2.13,4.23,30.7,30.7,0,0,0,7.23,4,41.41,41.41,0,0,1,5.63,4,12.49,12.49,0,0,1,2.84,4.11,13.27,13.27,0,0,1,1.35,6A15.85,15.85,0,0,1,348.62,475a18.11,18.11,0,0,1-12.7,4.89c-6,0-11.67-2.3-17.18-7l6.33-7.81c1.44,1,3,2.1,4.89,3.29a10,10,0,0,0,5.47,1.77,7.27,7.27,0,0,0,5.05-1.93,6.25,6.25,0,0,0,2.1-4.73,5.81,5.81,0,0,0-2.1-4.39,21.9,21.9,0,0,0-6.2-3.62,27.47,27.47,0,0,1-5.88-3,14.78,14.78,0,0,1-3.53-4.15,13.59,13.59,0,0,1-1.73-7.11,15.33,15.33,0,0,1,5.26-11.92,19,19,0,0,1,13.23-4.72C347,424.57,352.07,426.75,356.79,431Z"/><path class="cls-4" d="M392.7,431l-6,7.85a51.32,51.32,0,0,0-5.13-3.29,8.17,8.17,0,0,0-4-1.11,7.08,7.08,0,0,0-5,1.81,5.83,5.83,0,0,0-2,4.52,5.38,5.38,0,0,0,2.13,4.23,30.6,30.6,0,0,0,7.24,4,41.8,41.8,0,0,1,5.62,4,12.34,12.34,0,0,1,2.84,4.11,13.28,13.28,0,0,1,1.36,6A15.86,15.86,0,0,1,384.53,475a18.11,18.11,0,0,1-12.7,4.89c-6,0-11.67-2.3-17.17-7l6.32-7.81c1.44,1,3,2.1,4.89,3.29a10,10,0,0,0,5.47,1.77,7.27,7.27,0,0,0,5.05-1.93,6.25,6.25,0,0,0,2.1-4.73,5.81,5.81,0,0,0-2.1-4.39,21.75,21.75,0,0,0-6.2-3.62,27.47,27.47,0,0,1-5.88-3,14.78,14.78,0,0,1-3.53-4.15,13.59,13.59,0,0,1-1.73-7.11,15.33,15.33,0,0,1,5.26-11.92,19,19,0,0,1,13.23-4.72C382.92,424.57,388,426.75,392.7,431Z"/><path class="cls-4" d="M399,425.31h11.09l-8,53.95H391Z"/><path class="cls-4" d="M442.75,424.49q12.33,0,19,7t6.66,19.56q0,12.94-8.34,21c-5.55,5.34-12.82,8-21.74,8-7.93,0-14.13-2.43-18.73-7.15s-6.82-11.22-6.82-19.44,2.79-15.2,8.38-20.66S434,424.49,442.75,424.49Zm14.55,26.75c0-5.1-1.44-9.21-4.32-12.37a14.54,14.54,0,0,0-11.26-4.73,16.56,16.56,0,0,0-12.49,5.67A19.1,19.1,0,0,0,424,453.25c0,5,1.44,9.08,4.36,12.29a14.2,14.2,0,0,0,11.05,4.8A16.59,16.59,0,0,0,452,464.71,18.9,18.9,0,0,0,457.3,451.24Z"/><path class="cls-4" d="M480.55,425.31H492l17.26,36.12,5.3-36.12h11.06l-7.93,53.95H507.3l-18.08-37.43-5.46,37.43H472.62Z"/><path class="cls-4" d="M561.83,431l-6,7.85a52.45,52.45,0,0,0-5.14-3.29,8.15,8.15,0,0,0-4-1.11,7.1,7.1,0,0,0-5,1.81,5.87,5.87,0,0,0-2,4.52,5.36,5.36,0,0,0,2.14,4.23,30.49,30.49,0,0,0,7.23,4,42.78,42.78,0,0,1,5.63,4,12.48,12.48,0,0,1,2.83,4.11,13.15,13.15,0,0,1,1.36,6A15.86,15.86,0,0,1,553.65,475a18.1,18.1,0,0,1-12.7,4.89c-6,0-11.67-2.3-17.17-7l6.33-7.81c1.43,1,3,2.1,4.89,3.29a10,10,0,0,0,5.46,1.77,7.25,7.25,0,0,0,5-1.93,6.25,6.25,0,0,0,2.1-4.73,5.81,5.81,0,0,0-2.1-4.39,21.75,21.75,0,0,0-6.2-3.62,27.72,27.72,0,0,1-5.88-3,14.78,14.78,0,0,1-3.53-4.15,13.59,13.59,0,0,1-1.73-7.11,15.33,15.33,0,0,1,5.26-11.92,19.07,19.07,0,0,1,13.23-4.72C552.05,424.57,557.1,426.75,561.83,431Z"/><path class="cls-5" d="M544.94,286.21s-140.38,78.65-289.3,107.55S81.73,366.17,81.73,366.17s51.25,40,192.5,7.62C405.62,343.68,544.94,286.21,544.94,286.21Z"/><path class="cls-4" d="M566.84,281.62c-.12,0-.29,0-.44-.06.07-.13.1-.3.2-.39a11.26,11.26,0,0,1,.93-.69c-1-.46-1.9-.88-2.81-1.32a11,11,0,0,1-3-1.63,9.19,9.19,0,0,1-.94-1c-.8-1-1.59-2-2.41-3.08a1.47,1.47,0,0,1,1.39.21c.76.64,1.61,1.18,2.37,1.82a6.44,6.44,0,0,0,2.42,1.15c5.19,1.51,10.37,3,15.56,4.56a1.38,1.38,0,0,0,.83,0c5.62-1.79,11.24-3.62,16.86-5.41,1.92-.61,3.84-1.22,5.79-1.68a8.92,8.92,0,0,1,6.83.85,3.06,3.06,0,0,0,1,.23,7.09,7.09,0,0,1,1.13.24,1.33,1.33,0,0,1,.77,2,3.24,3.24,0,0,1-.89,1,28.28,28.28,0,0,1-9.1,4.34c-2.47.72-4.92,1.53-7.37,2.31a3.51,3.51,0,0,0-.63.34,19.39,19.39,0,0,1-2.57,1.39,1.06,1.06,0,0,0-.8,1.23l1.2-.4c1.21-.41,2.41-.83,3.62-1.19a3.5,3.5,0,0,1,1.33-.07,1.08,1.08,0,0,1,.95.86c.23.92.41,1.85.57,2.78a.78.78,0,0,1-.59.95c-1.63.6-3.22,1.32-4.87,1.87a7.9,7.9,0,0,1-2.24.19c-.29,0-.33-.22-.13-.43a2.8,2.8,0,0,1,.31-.28l-1.47-.08a12.22,12.22,0,0,0-.68,2c-.19,1.06-.93,3-1.93,3.19-.57.1-1.1-.38-1.57-1l-.76-1.39c-.45.12-.85.23-1.24.3a1,1,0,0,1-.43-.13,1.19,1.19,0,0,1,.2-.44c.24-.23.52-.43.81-.66a3.58,3.58,0,0,0-.8-.84,3,3,0,0,0-1.09-.11l.71-.9c.27-.05.73,0,.88-.19s0-.62-.06-.92l-2.19.55a1,1,0,0,1-.38,0,1.28,1.28,0,0,1-.36-.16,1.09,1.09,0,0,1,.17-.32,5.61,5.61,0,0,0,.68-.62l-.9.3a14.84,14.84,0,0,1-5.6.88,8,8,0,0,0-2.71.58c-1.21.42-2.4.94-3.64,1.27a30.57,30.57,0,0,1-3.92.79c-4.22.56-8.44,1.08-12.66,1.6a.83.83,0,0,0-.69.43c-.38.67-.82,1.31-1.2,2a1.09,1.09,0,0,1-.85.59c-1.28.21-1.28.23-1.79-1-.2-.45-.42-.9-.6-1.37a.5.5,0,0,0-.57-.37c-1.18,0-2.36,0-3.53.09-.5,0-.68-.26-.84-.63a.64.64,0,0,1,.34-.88c.65-.38,1.28-.8,2-1.24L540.85,291c.9-.32,1.7-.63,2.52-.88a1.71,1.71,0,0,1,.75.12l1.93.44-4.67-8.6c1.24-.34,2.44-.68,3.65-1a.76.76,0,0,1,.49.13c3.54,2.29,7.07,4.6,10.62,6.88a3,3,0,0,0,2.51.36c5-1.6,10-3.29,14.93-5,0,0,0,0,.08-.07a.7.7,0,0,0-.86-.16c-.4.15-.82.28-1.24.4a3.53,3.53,0,0,1-.57.07c.13-.6.68-.73,1-1.17-1.11-.51-2.21-1-3.32-1.53"/><path class="cls-6" d="M371.62,211a25.5,25.5,0,0,1,8.29,10.2c2.86,6.58,6.14,13.28,4.47,24.72s-22.69,1-22.5.2S371.62,211,371.62,211Z"/><path class="cls-4" d="M496.43,128.83l-23.27-20.59L542.09,117,589,167.45l-29.38-5.79-7.45,14.7a82.29,82.29,0,0,0-29.27-24.6c-14.31-7-26.22-9.46-33.72-10.1C492.15,136.14,493.77,133.57,496.43,128.83Z"/><path class="cls-4" d="M589.15,180.15l2.33.46c2.78.73,3.22,1.5,2.17,5.5-1.93,7.27-2.66,2.91-2.69,21.77l-5.53-.89c-.59-.09,3.33-17.67-1.7-.47-.17.59-4.25-.47-3.92-1.09,6.67-12.8,6-14.93,7-22.08A3.57,3.57,0,0,1,589.15,180.15Z"/><path class="cls-4" d="M589.56,177a48.42,48.42,0,0,0,.55-6.48c0-1.8.23-6.18-.34-7.93-.77-2.39-5.62-4.23-7.36-4.72-2.15-.6-8.42-2.52-10.46-2a1.18,1.18,0,0,1-.63-2.28c2.49-.63,8.57,1.31,11.41,2.22,6.7,2.13,8.59,4.06,9.42,6.9.61,2.08.17,4.74.16,6.85a56.48,56.48,0,0,1-.39,8.13,1.2,1.2,0,0,1-1.5.77,1.23,1.23,0,0,1-.86-1.46Z"/><path class="cls-4" d="M587.56,178a3.39,3.39,0,0,0,3,3.68,3.27,3.27,0,0,0,3.88-2.59,3.39,3.39,0,0,0-3-3.69A3.27,3.27,0,0,0,587.56,178Z"/><path class="cls-4" d="M587.56,178c.16.08.29-1.27,1.91-2a3.42,3.42,0,0,1,2.88.15,2.86,2.86,0,0,1,1.56,2.84,2.75,2.75,0,0,1-2.29,2.24,3.43,3.43,0,0,1-2.8-.75,4.49,4.49,0,0,1-1.26-2.49c-.06,0-.2.26-.2.81a3.16,3.16,0,0,0,1,2.16,4.08,4.08,0,0,0,3.47,1.15,3.59,3.59,0,0,0,3.12-3,3.73,3.73,0,0,0-2.15-3.79,4,4,0,0,0-3.64,0,3,3,0,0,0-1.53,1.76C587.44,177.7,587.5,178,587.56,178Z"/><path class="cls-4" d="M591.53,202.57c.31.09,1.69-5.34,1.83-11.22a42.32,42.32,0,0,0,0-6.85c-.23-1.93-1.39-3.07-1.54-3s.26,1.14.31,3.06a54.29,54.29,0,0,1,.38,6.29C592.34,196.71,591.29,202.51,591.53,202.57Z"/><path class="cls-4" d="M588.35,197c.27.07,1.33-3.31,1.92-7.63s.52-7.87.24-7.89-.65,3.47-1.25,7.74S588.07,197,588.35,197Z"/><path class="cls-4" d="M588.24,185.54c.27.07.72-.81,1-2s.27-2.13,0-2.2-.71.81-1,2S588,185.47,588.24,185.54Z"/></svg>