<svg id="Layer_1" data-name="Layer 1" xmlns="http://www.w3.org/2000/svg" viewBox="0 0 2056.7 605.74"><defs><style>.cls-1,.cls-6{fill:#4b144b;}.cls-1,.cls-2,.cls-5{stroke:#fff;stroke-miterlimit:10;}.cls-1,.cls-2{stroke-width:8px;}.cls-2,.cls-4{fill:#44b59c;}.cls-3,.cls-5{fill:#fff;}.cls-5{stroke-width:0.2px;}</style></defs><path class="cls-1" d="M375.86,245.51h-54q3.45-45.12,34.39-73t73.59-27.86q40.42,0,65.95,23.17T521.31,228q0,54.48-57.69,84.81,20.72,14.54,30.08,29.46t9.37,39.07q0,38.72-32.05,67.31t-75.44,28.59q-33.78,0-64.22-22.43t-40.8-74.45h55q13.8,35,46.84,35,16.26,0,29.33-12.69t13.07-28.23q0-18.74-13.81-29.09T382.27,335l7.15-47.08q31.8-2,48.69-15T455,239.1q0-15.53-9.87-26t-24.9-10.48Q385,202.61,375.86,245.51Z"/><path class="cls-2" d="M290.58,415.37h90.61l-8.63,56.95h-215l124.58-138q32.73-36.32,46.27-56.09T342,241q0-17.22-12.62-29.77a40.92,40.92,0,0,0-29.91-12.55q-42.52,0-49.43,62.13h-57.2q3.71-53.25,37.35-84.69t76.31-31.43q43.14,0,71.86,25.52t28.72,63.72q0,53.5-54.15,112.67Z"/><path class="cls-1" d="M130.4,144.68H237L182.09,467.89H115.85l44.87-266.51H120.78Z"/><rect class="cls-3" x="80.3" y="412.09" width="462.44" height="85.41"/><path class="cls-4" d="M122.51,425.31h7.77L144,479.26H133.56l-2.75-10.85h-20L105,479.26H93.54Zm2,17.75L115.93,459h12.54Z"/><path class="cls-4" d="M157.07,425.31H171a31.46,31.46,0,0,1,11.38,2.34,20.36,20.36,0,0,1,9.87,8.22,25.3,25.3,0,0,1,3.74,13.76,31.22,31.22,0,0,1-2.68,13.07A27.62,27.62,0,0,1,177,477.86a35,35,0,0,1-10.56,1.4H149.13Zm9.57,11-4.56,31.84h4.07c6.57,0,11.25-1.72,14-5.21s4.15-8,4.15-13.48a12.69,12.69,0,0,0-3.78-9.62c-2.51-2.34-6-3.53-10.36-3.53Z"/><path class="cls-4" d="M213,425.31h10.27l5.55,30.32L244,425.31h10.35v53.95h-10V447.05L227.9,479.26h-5.17l-6.09-33.61-11.38,33.61h-10.6Z"/><path class="cls-4" d="M266.73,425.31h11.1l-8,53.95H258.72Z"/><path class="cls-4" d="M313.86,431l-6,7.85a52.49,52.49,0,0,0-5.13-3.29,8.2,8.2,0,0,0-4-1.11,7.06,7.06,0,0,0-5,1.81,5.84,5.84,0,0,0-2,4.52,5.36,5.36,0,0,0,2.14,4.23,30.7,30.7,0,0,0,7.23,4,42.78,42.78,0,0,1,5.63,4,12.49,12.49,0,0,1,2.84,4.11,13.27,13.27,0,0,1,1.35,6A15.83,15.83,0,0,1,305.68,475,18.07,18.07,0,0,1,293,479.92c-6,0-11.67-2.3-17.18-7l6.33-7.81c1.44,1,3,2.1,4.89,3.29a10,10,0,0,0,5.46,1.77,7.28,7.28,0,0,0,5.06-1.93,6.24,6.24,0,0,0,2.09-4.73,5.8,5.8,0,0,0-2.09-4.39,21.83,21.83,0,0,0-6.21-3.62,27.59,27.59,0,0,1-5.87-3,15,15,0,0,1-3.54-4.15,13.59,13.59,0,0,1-1.72-7.11,15.29,15.29,0,0,1,5.26-11.92,19,19,0,0,1,13.23-4.72C304.08,424.57,309.14,426.75,313.86,431Z"/><path class="cls-4" d="M349.77,431l-6,7.85a52.49,52.49,0,0,0-5.13-3.29,8.17,8.17,0,0,0-4-1.11,7.08,7.08,0,0,0-5,1.81,5.83,5.83,0,0,0-2,4.52,5.35,5.35,0,0,0,2.13,4.23,30.7,30.7,0,0,0,7.23,4,41.41,41.41,0,0,1,5.63,4,12.34,12.34,0,0,1,2.84,4.11,13.27,13.27,0,0,1,1.35,6A15.85,15.85,0,0,1,341.6,475a18.11,18.11,0,0,1-12.7,4.89c-6,0-11.67-2.3-17.18-7l6.33-7.81c1.44,1,3,2.1,4.89,3.29a10,10,0,0,0,5.47,1.77,7.27,7.27,0,0,0,5-1.93,6.25,6.25,0,0,0,2.1-4.73,5.81,5.81,0,0,0-2.1-4.39,21.9,21.9,0,0,0-6.2-3.62,27.47,27.47,0,0,1-5.88-3,14.78,14.78,0,0,1-3.53-4.15,13.59,13.59,0,0,1-1.73-7.11,15.33,15.33,0,0,1,5.26-11.92,19,19,0,0,1,13.23-4.72C340,424.57,345.05,426.75,349.77,431Z"/><path class="cls-4" d="M356.06,425.31h11.09l-8,53.95H348.05Z"/><path class="cls-4" d="M399.82,424.49c8.22,0,14.54,2.34,19,7s6.66,11.22,6.66,19.56q0,12.94-8.34,21c-5.55,5.34-12.82,8-21.74,8-7.93,0-14.13-2.43-18.73-7.15s-6.83-11.22-6.83-19.44,2.8-15.2,8.39-20.66S391,424.49,399.82,424.49Zm14.54,26.75c0-5.1-1.43-9.21-4.31-12.37a14.57,14.57,0,0,0-11.26-4.73,16.53,16.53,0,0,0-12.49,5.67A19.1,19.1,0,0,0,381,453.25c0,5,1.44,9.08,4.36,12.29a14.2,14.2,0,0,0,11.05,4.8,16.56,16.56,0,0,0,12.61-5.63A18.86,18.86,0,0,0,414.36,451.24Z"/><path class="cls-4" d="M437.62,425.31H449l17.26,36.12,5.3-36.12h11l-7.93,53.95H464.37l-18.08-37.43-5.46,37.43H429.69Z"/><path class="cls-4" d="M518.89,431l-6,7.85a52.45,52.45,0,0,0-5.14-3.29,8.17,8.17,0,0,0-4-1.11,7.08,7.08,0,0,0-5,1.81,5.87,5.87,0,0,0-2,4.52,5.38,5.38,0,0,0,2.13,4.23,30.81,30.81,0,0,0,7.24,4,42.78,42.78,0,0,1,5.63,4,12.48,12.48,0,0,1,2.83,4.11,13.28,13.28,0,0,1,1.36,6A15.86,15.86,0,0,1,510.72,475a18.11,18.11,0,0,1-12.7,4.89c-6,0-11.67-2.3-17.17-7l6.32-7.81c1.44,1,3,2.1,4.89,3.29a10,10,0,0,0,5.47,1.77,7.25,7.25,0,0,0,5.05-1.93,6.25,6.25,0,0,0,2.1-4.73,5.81,5.81,0,0,0-2.1-4.39,21.75,21.75,0,0,0-6.2-3.62,27.47,27.47,0,0,1-5.88-3,14.78,14.78,0,0,1-3.53-4.15,13.59,13.59,0,0,1-1.73-7.11,15.33,15.33,0,0,1,5.26-11.92,19,19,0,0,1,13.23-4.72C509.12,424.57,514.17,426.75,518.89,431Z"/><path class="cls-5" d="M502,286.21s-140.38,78.65-289.3,107.55S38.8,366.17,38.8,366.17s51.25,40,192.5,7.62C362.69,343.68,502,286.21,502,286.21Z"/><path class="cls-4" d="M523.91,281.62c-.13,0-.29,0-.44-.06.07-.13.09-.3.2-.39a11.26,11.26,0,0,1,.93-.69c-1-.46-1.9-.88-2.81-1.32a10.85,10.85,0,0,1-3-1.63,9.19,9.19,0,0,1-.94-1c-.8-1-1.59-2-2.42-3.08a1.46,1.46,0,0,1,1.39.21c.77.64,1.62,1.18,2.38,1.82a6.47,6.47,0,0,0,2.41,1.15l15.57,4.56a1.38,1.38,0,0,0,.83,0c5.62-1.79,11.24-3.62,16.86-5.41,1.92-.61,3.84-1.22,5.79-1.68a8.93,8.93,0,0,1,6.83.85,3,3,0,0,0,1,.23,7.33,7.33,0,0,1,1.13.24,1.33,1.33,0,0,1,.76,2,3.12,3.12,0,0,1-.89,1,28.13,28.13,0,0,1-9.09,4.34c-2.47.72-4.92,1.53-7.37,2.31a3.51,3.51,0,0,0-.63.34,19.39,19.39,0,0,1-2.57,1.39A1.05,1.05,0,0,0,549,288l1.2-.4c1.21-.41,2.4-.83,3.62-1.19a3.49,3.49,0,0,1,1.33-.07,1.08,1.08,0,0,1,1,.86c.23.92.41,1.85.57,2.78a.78.78,0,0,1-.59.95c-1.63.6-3.22,1.32-4.87,1.87A7.9,7.9,0,0,1,549,293c-.29,0-.34-.22-.13-.43a2.8,2.8,0,0,1,.31-.28l-1.48-.08a13.26,13.26,0,0,0-.67,2c-.19,1.06-.93,3-1.93,3.19-.57.1-1.1-.38-1.57-1l-.76-1.39c-.46.12-.85.23-1.25.3-.13,0-.28-.08-.42-.13a1.19,1.19,0,0,1,.2-.44c.24-.23.52-.43.81-.66a3.58,3.58,0,0,0-.8-.84,3,3,0,0,0-1.09-.11l.71-.9c.27-.05.73,0,.88-.19s0-.62-.06-.92l-2.19.55a1,1,0,0,1-.38,0,1.28,1.28,0,0,1-.36-.16.9.9,0,0,1,.17-.32,6.47,6.47,0,0,0,.68-.62c-.3.1-.61.19-.9.3a14.84,14.84,0,0,1-5.6.88,8,8,0,0,0-2.71.58c-1.21.42-2.4.94-3.64,1.27a30.38,30.38,0,0,1-3.93.79c-4.21.56-8.43,1.08-12.65,1.6a.82.82,0,0,0-.69.43c-.38.67-.82,1.31-1.2,2a1.09,1.09,0,0,1-.85.59c-1.28.21-1.28.23-1.8-1-.2-.45-.41-.9-.59-1.37a.51.51,0,0,0-.58-.37c-1.17,0-2.35,0-3.52.09-.5,0-.69-.26-.84-.63a.63.63,0,0,1,.34-.88c.65-.38,1.28-.8,2-1.24L497.92,291c.89-.32,1.69-.63,2.51-.88a1.75,1.75,0,0,1,.76.12l1.92.44-4.66-8.6c1.24-.34,2.44-.68,3.65-1a.72.72,0,0,1,.48.13c3.55,2.29,7.08,4.6,10.63,6.88a3,3,0,0,0,2.51.36c5-1.6,10-3.29,14.93-5,0,0,0,0,.08-.07a.7.7,0,0,0-.86-.16c-.41.15-.82.28-1.24.4a3.68,3.68,0,0,1-.57.07c.13-.6.68-.73,1-1.17-1.11-.51-2.21-1-3.32-1.53"/><path class="cls-6" d="M328.69,211a25.5,25.5,0,0,1,8.29,10.2c2.86,6.58,6.14,13.28,4.47,24.72s-22.69,1-22.5.2S328.69,211,328.69,211Z"/><path class="cls-4" d="M453.5,128.83l-23.27-20.59L499.15,117,546,167.45l-29.39-5.79-7.44,14.7a82.29,82.29,0,0,0-29.27-24.6c-14.31-7-26.22-9.46-33.72-10.1C449.22,136.14,450.84,133.57,453.5,128.83Z"/><path class="cls-4" d="M546.22,180.15l2.33.46c2.78.73,3.22,1.5,2.16,5.5-1.92,7.27-2.66,2.91-2.68,21.77l-5.54-.89c-.58-.09,3.34-17.67-1.69-.47-.17.59-4.25-.47-3.93-1.09,6.68-12.8,6-14.93,7-22.08A3.57,3.57,0,0,1,546.22,180.15Z"/><path class="cls-4" d="M546.63,177a48.41,48.41,0,0,0,.54-6.48c0-1.8.24-6.18-.33-7.93-.77-2.39-5.62-4.23-7.36-4.72-2.15-.6-8.42-2.52-10.46-2a1.18,1.18,0,0,1-.63-2.28c2.49-.63,8.57,1.31,11.41,2.22,6.7,2.13,8.59,4.06,9.42,6.9.61,2.08.17,4.74.16,6.85a58,58,0,0,1-.39,8.13,1.2,1.2,0,0,1-1.5.77,1.22,1.22,0,0,1-.86-1.46Z"/><path class="cls-4" d="M544.63,178a3.39,3.39,0,0,0,3,3.68,3.28,3.28,0,0,0,3.88-2.59,3.39,3.39,0,0,0-3-3.69A3.27,3.27,0,0,0,544.63,178Z"/><path class="cls-4" d="M544.63,178c.16.08.29-1.27,1.91-2a3.42,3.42,0,0,1,2.88.15A2.86,2.86,0,0,1,551,179a2.75,2.75,0,0,1-2.29,2.24,3.43,3.43,0,0,1-2.8-.75,4.4,4.4,0,0,1-1.26-2.49c-.06,0-.2.26-.2.81a3.19,3.19,0,0,0,1,2.16,4.1,4.1,0,0,0,3.48,1.15,3.6,3.6,0,0,0,3.12-3,3.73,3.73,0,0,0-2.15-3.79,4,4,0,0,0-3.64,0,3,3,0,0,0-1.53,1.76C544.51,177.7,544.57,178,544.63,178Z"/><path class="cls-4" d="M548.6,202.57c.31.09,1.69-5.34,1.82-11.22a41.35,41.35,0,0,0,0-6.85c-.23-1.93-1.4-3.07-1.54-3s.26,1.14.31,3.06a56.63,56.63,0,0,1,.38,6.29C549.41,196.71,548.36,202.51,548.6,202.57Z"/><path class="cls-4" d="M545.42,197c.27.07,1.33-3.31,1.92-7.63s.52-7.87.24-7.89-.65,3.47-1.25,7.74S545.14,197,545.42,197Z"/><path class="cls-4" d="M545.31,185.54c.27.07.72-.81,1-2s.27-2.13,0-2.2-.71.81-1,2S545,185.47,545.31,185.54Z"/><path class="cls-4" d="M707.1,219.29h24.1L773.79,386.7H741.4L732.86,353h-62l-18.1,33.66H617.21Zm6.12,55.08L686.7,323.72h38.89Z"/><path class="cls-4" d="M814.33,219.29h43.1c11.09,0,22.82,2.42,35.32,7.27s22.69,13.39,30.6,25.5C931,264.17,935,278.45,935,294.77c0,14.67-2.68,28.18-8.29,40.55a81.1,81.1,0,0,1-22.44,30.73c-9.56,8-18.87,13.51-28.18,16.32s-20.14,4.33-32.76,4.33H789.72ZM844,253.46l-14.15,98.82h12.62c20.4,0,34.94-5.36,43.48-16.2s12.88-24.86,12.88-41.82c0-12.49-4-22.44-11.73-29.83s-18.49-11-32.13-11Z"/><path class="cls-4" d="M987.74,219.29h31.87l17.22,94.1,47.17-94.1h32.13V386.7h-31v-100l-51,100h-16.07L999.21,282.4,963.89,386.7H931Z"/><path class="cls-4" d="M1154.64,219.29h34.43L1164.33,386.7h-34.55Z"/><path class="cls-4" d="M1300.89,237l-18.62,24.36a158.91,158.91,0,0,0-15.94-10.2,25.26,25.26,0,0,0-12.49-3.45c-6.38,0-11.61,1.92-15.56,5.61a18.19,18.19,0,0,0-6.12,14c0,5,2.17,9.43,6.63,13.13s11.86,7.91,22.44,12.5c8.55,5.35,14.28,9.43,17.47,12.37s6.12,7,8.8,12.75a41,41,0,0,1,4.21,18.48c0,14.54-5.49,26.78-16.2,37-11,10.07-24,15.17-39.4,15.17-18.48,0-36.21-7.14-53.29-21.67l19.63-24.23c4.47,3.06,9.44,6.5,15.18,10.2s11.34,5.48,16.95,5.48a22.55,22.55,0,0,0,15.69-6,19.38,19.38,0,0,0,6.5-14.66c0-5.1-2.17-9.69-6.5-13.64S1239.56,316.58,1231,313s-14.66-6.63-18.23-9.44-7.27-7-11-12.88-5.36-13.26-5.36-22.06c0-14.79,5.36-27.15,16.32-37,10.71-9.69,24.48-14.66,41.06-14.66S1286.22,223.75,1300.89,237Z"/><path class="cls-4" d="M1412.32,237l-18.61,24.36a160.05,160.05,0,0,0-15.94-10.2,25.29,25.29,0,0,0-12.49-3.45c-6.38,0-11.61,1.92-15.56,5.61a18.19,18.19,0,0,0-6.12,14c0,5,2.17,9.43,6.63,13.13s11.86,7.91,22.44,12.5c8.54,5.35,14.28,9.43,17.47,12.37s6.12,7,8.8,12.75a41,41,0,0,1,4.2,18.48c0,14.54-5.48,26.78-16.19,37-11,10.07-24,15.17-39.4,15.17-18.49,0-36.21-7.14-53.29-21.67l19.63-24.23c4.46,3.06,9.44,6.5,15.17,10.2s11.35,5.48,17,5.48a22.55,22.55,0,0,0,15.69-6,19.38,19.38,0,0,0,6.5-14.66c0-5.1-2.17-9.69-6.5-13.64S1351,316.58,1342.45,313s-14.66-6.63-18.23-9.44-7.27-7-11-12.88-5.35-13.26-5.35-22.06c0-14.79,5.35-27.15,16.32-37C1334.93,222,1348.7,217,1365.28,217S1397.66,223.75,1412.32,237Z"/><path class="cls-4" d="M1431.83,219.29h34.43L1441.52,386.7H1407Z"/><path class="cls-4" d="M1567.62,216.74q38.25,0,59,21.8t20.65,60.69q0,40.17-25.88,65c-17.21,16.58-39.78,24.86-67.45,24.74-24.61,0-43.86-7.53-58.14-22.19-14-14.79-21.17-34.81-21.17-60.31q0-38.62,26-64.13T1567.62,216.74Zm45.14,83c0-15.82-4.46-28.57-13.39-38.38s-20.53-14.67-34.93-14.67c-14.92,0-27.8,5.87-38.76,17.6A59.21,59.21,0,0,0,1509.35,306c0,15.56,4.47,28.18,13.52,38.13s20.4,14.91,34.3,14.91c15.17,0,28.3-5.73,39.14-17.46S1612.76,316.07,1612.76,299.75Z"/><path class="cls-4" d="M1684.93,219.29h35.44l53.55,112.08,16.45-112.08h34.3L1800.06,386.7h-32.13l-56.1-116.15-17,116.15h-34.55Z"/><path class="cls-4" d="M1937.13,237l-18.62,24.36a160.09,160.09,0,0,0-15.93-10.2,25.3,25.3,0,0,0-12.5-3.45c-6.37,0-11.6,1.92-15.56,5.61a18.19,18.19,0,0,0-6.12,14c0,5,2.17,9.43,6.63,13.13s11.86,7.91,22.45,12.5c8.54,5.35,14.28,9.43,17.46,12.37s6.12,7,8.8,12.75a40.92,40.92,0,0,1,4.21,18.48c0,14.54-5.48,26.78-16.19,37-11,10.07-24,15.17-39.4,15.17-18.49,0-36.21-7.14-53.3-21.67l19.64-24.23c4.46,3.06,9.43,6.5,15.17,10.2s11.35,5.48,17,5.48a22.52,22.52,0,0,0,15.68-6,19.34,19.34,0,0,0,6.5-14.66c0-5.1-2.16-9.69-6.5-13.64s-10.71-7.65-19.25-11.22-14.67-6.63-18.24-9.44-7.26-7-11-12.88-5.36-13.26-5.36-22.06c0-14.79,5.36-27.15,16.32-37C1859.73,222,1873.5,217,1890.08,217S1922.47,223.75,1937.13,237Z"/></svg>