<svg width="21" height="24" viewBox="0 0 21 24" fill="none" xmlns="http://www.w3.org/2000/svg">
<path d="M18.8571 23.9992H17.1429V21.4277C17.1415 20.2915 16.6895 19.2022 15.8861 18.3988C15.0827 17.5953 13.9934 17.1434 12.8571 17.142H7.71429C6.57806 17.1434 5.48876 17.5953 4.68533 18.3988C3.8819 19.2022 3.42993 20.2915 3.42857 21.4277V23.9992H1.71429V21.4277C1.71655 19.8371 2.34942 18.3123 3.47415 17.1876C4.59888 16.0629 6.12368 15.43 7.71429 15.4277H12.8571C14.4477 15.43 15.9726 16.0629 17.0973 17.1876C18.222 18.3123 18.8549 19.8371 18.8571 21.4277V23.9992ZM0.857143 3.42773C0.629814 3.42773 0.411797 3.51804 0.251051 3.67879C0.090306 3.83953 0 4.05755 0 4.28488V11.9992H1.71429V4.28488C1.71429 4.05755 1.62398 3.83953 1.46323 3.67879C1.30249 3.51804 1.08447 3.42773 0.857143 3.42773Z" fill="#141617"/>
<path d="M0 0V1.71429H4.28571V7.71429C4.28571 9.30558 4.91786 10.8317 6.04307 11.9569C7.16829 13.0821 8.69442 13.7143 10.2857 13.7143C11.877 13.7143 13.4031 13.0821 14.5284 11.9569C15.6536 10.8317 16.2857 9.30558 16.2857 7.71429V1.71429H20.5714V0H0ZM6 1.71429H14.5714V4.28571H6V1.71429ZM10.2857 12C9.14907 12 8.05898 11.5485 7.25526 10.7447C6.45153 9.94102 6 8.85093 6 7.71429V6H14.5714V7.71429C14.5714 8.85093 14.1199 9.94102 13.3162 10.7447C12.5124 11.5485 11.4224 12 10.2857 12Z" fill="#141617"/>
</svg>
