<svg width="207" height="273" viewBox="0 0 207 273" fill="none" xmlns="http://www.w3.org/2000/svg">
<path d="M94.8478 234.146C93.0984 244.349 85.3362 267.959 78.3826 265.445C76.9124 264.901 75.31 263.005 73.737 260.197C68.9885 251.699 64.3136 234.955 61.9761 223.635C60.7118 217.475 60.1384 212.903 60.653 212.168C63.7549 207.567 93.216 227.487 94.9654 229.692C95.2889 230.118 95.2153 231.765 94.8478 234.146Z" fill="url(#paint0_linear_862_3161)"/>
<path d="M141.449 220.359C141.346 221.3 141.214 222.285 141.081 223.299C138.994 238.794 134.686 261.522 130.07 269.843C128.968 271.827 127.836 272.974 126.718 273.003C126.414 273.009 126.111 272.964 125.821 272.871C124.536 272.37 123.405 271.538 122.543 270.46C115.531 262.58 107.607 238.662 107.327 231.517C107.243 230.896 107.335 230.265 107.592 229.694C111.591 224.269 140.567 205.746 142.184 207.951C142.61 208.598 142.287 213.479 141.449 220.359Z" fill="url(#paint1_linear_862_3161)"/>
<path d="M60.6428 212.168C57.3791 216.432 83.9588 235.69 95.161 230.677C95.161 230.648 64.9649 206.508 60.6428 212.168Z" fill="url(#paint2_linear_862_3161)"/>
<path d="M107.335 231.514C106.453 233.676 137.134 228.707 142.191 207.993C142.191 207.949 115.656 211.05 107.335 231.514Z" fill="url(#paint3_linear_862_3161)"/>
<path style="mix-blend-mode:multiply" opacity="0.3" d="M72.2512 230.074C70.7811 231.912 72.6041 255.786 78.3375 265.445C76.8674 264.901 75.265 263.005 73.692 260.197C72.7658 256.022 71.3839 249.818 70.0755 243.628C68.3364 236.611 65.6038 229.879 61.9605 223.635C60.6962 217.475 60.1228 212.903 60.6374 212.168C63.7393 207.567 93.2004 227.487 94.9498 229.692C95.2879 230.118 95.2144 231.765 94.8028 234.102C94.8469 234.146 73.7508 228.251 72.2512 230.074Z" fill="url(#paint4_linear_862_3161)"/>
<path d="M124.169 238.733C122.919 239.115 122.625 249.112 124.713 249.67C126.8 250.229 127.065 237.85 124.169 238.733Z" fill="white"/>
<path style="mix-blend-mode:multiply" opacity="0.3" d="M141.453 220.354C141.453 220.354 124.679 225.323 120.872 233.276C117.064 241.229 118.446 260.135 122.621 270.441C115.609 262.561 107.685 238.642 107.406 231.497C107.321 230.877 107.413 230.245 107.67 229.674C111.669 224.25 140.645 205.726 142.262 207.931C142.615 208.593 142.291 213.474 141.453 220.354Z" fill="url(#paint5_linear_862_3161)"/>
<path d="M68.9269 142.126C68.9269 150.947 67.6479 163.795 63.6198 174.145C56.9749 191.272 46.9781 212.853 46.6694 213.529C40.5684 217.249 33.2619 217.043 28.6017 216.367C27.0256 216.15 25.4678 215.816 23.9414 215.367C26.0106 200.825 30.3461 186.697 36.7902 173.498C41.8874 163.161 48.0145 153.365 55.0784 144.258V144.155C55.0784 144.052 55.2254 143.964 55.2989 143.861C55.3429 143.81 55.3822 143.756 55.4165 143.699C55.4638 143.663 55.5037 143.618 55.5341 143.567C55.5844 143.495 55.6384 143.427 55.6959 143.361C61.738 135.687 66.6482 131.041 67.6773 131.6C68.3829 131.909 68.9416 136.099 68.9269 142.126Z" fill="url(#paint6_linear_862_3161)"/>
<path d="M24.0156 214.618C24.0156 214.618 31.8807 201.637 39.9958 203.328C48.1108 205.018 46.6554 213.618 46.6554 213.618C43.3107 215.781 39.4502 217.014 35.4711 217.189C31.492 217.365 27.5379 216.478 24.0156 214.618Z" fill="url(#paint7_linear_862_3161)"/>
<path style="mix-blend-mode:multiply" opacity="0.3" d="M68.9338 142.133C68.9338 150.953 67.6548 163.802 63.6266 174.152C56.9817 191.279 46.985 212.86 46.6762 213.536L28.5938 216.388C27.0177 216.171 25.46 215.837 23.9336 215.389C26.0028 200.847 30.3383 186.719 36.7824 173.52C41.8796 163.183 48.0067 153.386 55.0706 144.279C51.6599 148.778 37.4292 168.36 33.5775 184.987C29.1672 203.892 46.8085 196.615 54.0121 184.987C61.2157 173.358 68.7132 142.133 68.7132 142.133H68.9338Z" fill="url(#paint8_linear_862_3161)"/>
<path d="M49.2767 172.368C47.8066 171.824 55.2453 155.065 57.5387 154.903C59.8321 154.742 50.4822 172.824 49.2767 172.368Z" fill="white"/>
<path d="M48.5128 174.147C47.3808 173.544 46.3223 176.69 47.3514 177.087C48.3805 177.484 49.7918 174.779 48.5128 174.147Z" fill="white"/>
<path d="M37.3807 207.244C33.1762 206.553 27.0899 210.478 25.1788 214.006C23.2676 217.535 22.2385 237.866 27.0752 254.655C27.0752 254.655 33.8524 256.493 38.9243 254.655C43.9962 252.817 47.5392 237.999 47.8038 226.855C48.0684 215.712 44.2902 208.361 37.3807 207.244Z" fill="url(#paint9_linear_862_3161)"/>
<path d="M36.7503 255.212C36.7503 255.212 30.5611 219.444 44.6301 212.152C44.6301 212.152 48.8052 219.238 47.2616 233.057C45.718 246.876 43.3952 253.948 36.7503 255.212Z" fill="url(#paint10_linear_862_3161)"/>
<path style="mix-blend-mode:multiply" opacity="0.5" d="M35.7344 235.366C35.7344 235.366 39.3509 240.644 41.8206 241.511C43.2409 242.053 44.8107 242.053 46.231 241.511L37.1163 225.34C36.2473 228.613 35.7832 231.98 35.7344 235.366Z" fill="url(#paint11_linear_862_3161)"/>
<path d="M37.1016 225.233C37.1016 225.233 39.1009 215.324 45.0843 212.898C45.0843 212.898 50.6413 218.382 49.23 239.684C49.23 239.684 46.128 243.786 41.7471 239.684C39.5203 235.112 37.9561 230.246 37.1016 225.233Z" fill="url(#paint12_linear_862_3161)"/>
<path d="M40.4567 221.734C38.428 221.734 41.5152 230.731 42.5737 230.555C43.6322 230.379 42.2209 221.734 40.4567 221.734Z" fill="white"/>
<path d="M63.6224 16.1847C63.6224 16.1847 54.4342 8.26081 43.1731 6.87891C43.1731 6.87891 39.733 8.56954 35.8225 20.9626C31.912 33.3556 39.1891 57.8624 39.1891 57.8624L63.6224 16.1847Z" fill="url(#paint13_linear_862_3161)"/>
<path d="M38.8203 13.0681C39.8435 10.7205 41.3457 8.6124 43.2307 6.87891C43.2307 6.87891 52.4924 15.4203 52.1248 35.8401L49.4639 38.6039L38.8203 13.0681Z" fill="url(#paint14_linear_862_3161)"/>
<path d="M139.711 16.1847C139.711 16.1847 148.914 8.26081 160.16 6.87891C160.16 6.87891 163.6 8.56954 167.511 20.9626C171.421 33.3556 164.144 57.8624 164.144 57.8624L139.711 16.1847Z" fill="url(#paint15_linear_862_3161)"/>
<path d="M160.167 6.88293C154.247 14.0553 151.027 23.075 151.067 32.3747L154.58 34.5946L164.871 13.3661C164.871 13.3661 161.431 6.69182 160.167 6.88293Z" fill="url(#paint16_linear_862_3161)"/>
<path d="M154.242 33.52C154.242 33.52 151.831 20.0832 160.666 10.2188C160.666 10.2188 170.648 14.9231 174.794 32.3734C178.94 49.8236 168.164 60.3055 168.164 60.3055L154.242 33.52Z" fill="url(#paint17_linear_862_3161)"/>
<path d="M49.095 33.52C49.095 33.52 51.5207 20.0832 42.6706 10.2188C42.6706 10.2188 32.6886 14.9231 28.5576 32.3734C24.4265 49.8236 35.1878 60.3055 35.1878 60.3055L49.095 33.52Z" fill="url(#paint18_linear_862_3161)"/>
<path d="M166.522 107.774C146.014 136.559 49.5741 134.412 37.0194 111.141C28.8308 95.9396 29.6688 73.094 37.6074 52.0714C47.8982 24.4774 70.3762 0 100.087 0C135.061 0 161.935 34.8417 170.02 66.6549C174.122 82.7674 173.416 98.1006 166.522 107.774Z" fill="url(#paint19_linear_862_3161)"/>
<path d="M44.2143 81.0805C48.801 100.677 133.568 102.809 154.385 85.0498C175.201 67.2908 145.226 4.25238 99.2553 6.97209C57.2983 9.48598 36.6873 48.9879 44.2143 81.0805Z" fill="#DFE3FB"/>
<path d="M43.7767 78.7111C48.3634 98.293 133.13 100.425 153.947 82.6804C174.764 64.9361 144.788 1.82421 98.8618 4.58802C56.8607 7.10191 36.2497 46.6038 43.7767 78.7111Z" fill="url(#paint20_linear_862_3161)"/>
<path style="mix-blend-mode:multiply" opacity="0.3" d="M166.522 107.773C146.014 136.558 49.5741 134.411 37.0194 111.139C28.8308 95.9385 29.6688 73.0929 37.6074 52.0703C37.2693 53.3052 29.1837 82.781 37.4457 95.7474C45.8841 108.978 79.2557 107.17 115.082 105.641C150.909 104.112 162.758 98.8934 168.771 88.7937C173.505 80.8404 168.771 63.2873 166.492 56.1866L170.006 66.6685C174.122 82.7663 173.416 98.0996 166.522 107.773Z" fill="url(#paint21_linear_862_3161)"/>
<path d="M100.189 128.954C80.151 128.954 65.6997 126.675 57.6288 123.426C52.3217 121.309 49.749 118.781 50.1165 116.179C50.3518 114.591 54.2917 113.239 60.4073 112.048C78.6073 108.755 116.272 107.77 136.589 110.842C138.338 111.107 139.955 111.401 141.425 111.724L142.337 111.945H142.498C146.012 112.812 148.496 113.871 149.599 115.15C149.859 115.436 150.05 115.778 150.158 116.149C152.186 122.677 118.374 128.954 100.189 128.954Z" fill="url(#paint22_linear_862_3161)"/>
<path style="mix-blend-mode:multiply" opacity="0.5" d="M149.996 114.582C149.909 114.796 149.795 114.999 149.658 115.185C147.688 117.964 139.735 121.536 139.735 121.536C139.735 121.536 109.127 109.011 84.3261 114.582C59.5253 120.154 57.6288 123.403 57.6288 123.403C52.3217 121.286 49.749 118.757 50.1165 116.155C50.3518 114.568 54.2917 113.215 60.4073 112.024C78.6073 108.731 116.272 107.746 136.589 110.819C138.706 111.201 140.646 111.569 142.337 111.921H142.498C147.379 113.039 150.217 113.95 149.996 114.582Z" fill="url(#paint23_linear_862_3161)"/>
<path d="M141.483 111.727C136.749 116.255 114.021 120.18 101.069 120.165C77.8416 120.165 63.7432 116.461 60.4648 112.05C80.2379 108.478 122.989 107.611 141.483 111.727Z" fill="url(#paint24_linear_862_3161)"/>
<path d="M140.021 202.517C137.228 219.056 122.38 230.067 101.21 230.067C82.731 230.067 67.089 223.187 62.9874 208.015C58.8858 192.844 60.4588 164.838 65.9276 147.388C66.7227 144.82 67.7054 142.314 68.8678 139.89C69.8884 137.765 71.0525 135.712 72.352 133.745C79.0851 123.601 88.9496 116.971 100.108 116.971C105.132 116.848 110.121 117.846 114.711 119.893C119.302 121.94 123.378 124.985 126.643 128.806C129.441 132.108 131.667 135.854 133.229 139.89C135.091 144.648 136.614 149.531 137.787 154.503C137.784 154.552 137.784 154.601 137.787 154.65C141.653 170.306 142.412 186.569 140.021 202.517Z" fill="url(#paint25_linear_862_3161)"/>
<path d="M125.531 127.453C125.531 127.453 127.339 147.094 138.88 159.031C138.953 159.031 135.675 140.728 125.531 127.453Z" fill="url(#paint26_linear_862_3161)"/>
<path d="M190.711 103.483C172.643 139.309 140.727 151.541 140.727 151.541C131.907 145.866 124.335 127.357 127.349 123.741C127.499 123.563 127.685 123.418 127.893 123.315C166.778 104.718 178.406 85.4297 178.406 85.4297C180.551 85.5435 182.621 86.255 184.382 87.4839C186.144 88.7127 187.526 90.4098 188.374 92.3833C189.941 95.8724 190.738 99.658 190.711 103.483Z" fill="url(#paint27_linear_862_3161)"/>
<path style="mix-blend-mode:multiply" opacity="0.5" d="M37.0154 111.135C40.4595 107.536 44.5551 104.623 49.0851 102.55C57.0678 98.7277 64.4183 95.7287 65.5503 92.6561C66.6823 89.5836 43.6309 91.3919 43.6309 91.3919L32.1641 96.3755C32.1641 96.3755 33.9576 105.681 37.0154 111.135Z" fill="url(#paint28_linear_862_3161)"/>
<path d="M178.468 85.4159C175.219 86.2832 175.527 107.762 179.688 109.908C183.848 112.054 190.714 103.484 190.714 103.484C190.714 103.484 189.949 82.358 178.468 85.4159Z" fill="url(#paint29_linear_862_3161)"/>
<path d="M117.076 46.987C120.134 52.3823 140.421 47.5898 141.568 44.3849C143.038 40.1069 137.437 26.6259 126.72 27.8608C116.003 29.0957 115.591 44.3702 117.076 46.987Z" fill="url(#paint30_linear_862_3161)"/>
<path d="M85.3784 46.987C82.3059 52.3823 62.0183 47.5898 60.8716 44.3849C59.4015 40.1069 65.0174 26.6259 75.7345 27.8608C86.4516 29.0957 86.8632 44.3702 85.3784 46.987Z" fill="url(#paint31_linear_862_3161)"/>
<path d="M79.7266 56.9349C79.7266 56.9349 85.5188 62.9036 101.911 62.9036C118.302 62.9036 126.726 56.0234 126.726 56.0234C126.726 56.0234 119.493 65.8144 101.911 65.8144C84.328 65.8144 79.7266 56.9349 79.7266 56.9349Z" fill="#6CCBFF"/>
<path d="M27.6205 38.6016C27.6205 38.6016 33.5009 42.4239 29.6639 51.2886C29.6639 51.2886 1.8788 66.4161 3.48122 82.9108C4.83373 96.6563 43.1743 89.9967 43.1743 89.9967L44.5415 94.5982C44.5415 94.5982 11.9785 100.978 0.761517 93.3045C0.761517 93.3045 -3.06078 84.2192 6.42145 67.8421C12.548 57.4473 19.646 47.6566 27.6205 38.6016Z" fill="url(#paint32_linear_862_3161)"/>
<path d="M38.3523 88.7377C34.8535 92.6923 42.2775 97.0144 48.3785 97.676C55.2292 98.4257 67.3871 95.7207 66.652 88.8553C65.917 81.9899 46.5556 79.4613 38.3523 88.7377Z" fill="url(#paint33_linear_862_3161)"/>
<path style="mix-blend-mode:screen" opacity="0.5" d="M57.6808 29.1547C56.6223 35.5056 70.7354 35.2263 90.0233 34.5941C113.133 33.8297 136.361 53.7056 149.872 39.4455C152.106 37.0933 129.981 6.19155 103.254 6.88251C76.5277 7.57346 58.5923 23.6418 57.6808 29.1547Z" fill="url(#paint34_linear_862_3161)"/>
<path style="mix-blend-mode:screen" opacity="0.5" d="M70.786 84.4468C69.5658 89.0335 79.195 93.635 102.864 92.4883C131.472 91.0182 137.544 85.1377 136.132 83.4324C135.295 82.4327 126.724 87.8427 103.217 82.6826C87.707 79.2279 72.0797 79.5954 70.786 84.4468Z" fill="url(#paint35_linear_862_3161)"/>
<path style="mix-blend-mode:multiply" opacity="0.3" d="M166.308 55.568L165.617 53.4805C165.749 53.8774 166.014 54.5978 166.308 55.568Z" fill="url(#paint36_linear_862_3161)"/>
<path style="mix-blend-mode:multiply" opacity="0.3" d="M140.021 202.521C137.228 219.06 122.38 230.071 101.21 230.071C82.731 230.071 67.089 223.191 62.9874 208.02C58.8858 192.848 60.4588 164.842 65.9276 147.392C66.7227 144.824 67.7054 142.318 68.8678 139.895C68.8678 139.895 57.695 176.941 66.6186 200.537C75.5422 224.132 117.176 223.632 131.304 207.961C144.711 193.039 138.522 157.977 137.89 154.64C141.723 170.308 142.447 186.575 140.021 202.521Z" fill="url(#paint37_linear_862_3161)"/>
<path d="M63.7543 192.717C66.915 170.533 84.7034 155.493 104.476 157.434C125.778 159.448 137.231 179.78 136.922 197.23C136.613 214.68 123.867 228.308 101.007 228.308C78.1467 228.308 60.7994 213.46 63.7543 192.717Z" fill="url(#paint38_linear_862_3161)"/>
<path d="M63.9746 194.556C67.1206 172.372 84.9237 157.333 104.682 159.274C125.999 161.288 137.451 181.619 137.142 199.07C136.833 216.52 124.087 230.148 101.213 230.148C78.3376 230.148 61.0344 215.3 63.9746 194.556Z" fill="url(#paint39_radial_862_3161)"/>
<path style="mix-blend-mode:multiply" opacity="0.5" d="M126.716 128.784C122.203 135.87 97.3139 140.001 82.9362 138.692C70.4108 137.546 72.3073 134.164 72.4102 133.738C79.1433 123.594 89.0077 116.964 100.166 116.964C105.192 116.836 110.183 117.831 114.776 119.876C119.369 121.921 123.448 124.964 126.716 128.784Z" fill="url(#paint40_linear_862_3161)"/>
<path d="M117.87 141.075C116.724 141.457 116.665 150.777 117.87 152.292C119.076 153.806 121.031 153.321 121.678 151.13C122.325 148.94 119.62 140.501 117.87 141.075Z" fill="white"/>
<path d="M120.015 154.771C119.044 154.992 118.942 157.314 119.383 158.123C119.545 158.297 119.747 158.43 119.972 158.509C120.197 158.588 120.438 158.611 120.674 158.576C120.909 158.542 121.133 158.45 121.326 158.31C121.518 158.169 121.674 157.984 121.779 157.77C122.044 156.785 120.985 154.536 120.015 154.771Z" fill="white"/>
<path style="mix-blend-mode:screen" opacity="0.72" d="M76.4688 217.149C76.4688 217.149 81.57 226.044 100.593 226.117C119.617 226.191 127.335 214.856 127.335 214.856C124.111 216.633 120.567 217.752 116.907 218.145C113.247 218.539 109.546 218.2 106.018 217.149C93.478 213.709 81.0702 211.784 76.4688 217.149Z" fill="url(#paint41_linear_862_3161)"/>
<path d="M116.441 4.04823C114.412 4.53336 131.466 13.5451 132.156 12.472C132.847 11.3988 122.072 2.78393 116.441 4.04823Z" fill="white"/>
<path d="M149.107 10.7897C147.402 11.7012 147.549 13.5388 151.063 13.0831C154.576 12.6274 156.487 9.86353 156.105 9.33429C155.723 8.80505 151.018 9.76062 149.107 10.7897Z" fill="white"/>
<path style="mix-blend-mode:multiply" opacity="0.3" d="M190.711 103.479C172.643 139.306 140.727 151.537 140.727 151.537C131.907 145.863 124.335 127.354 127.349 123.737C127.526 123.59 127.702 123.443 127.893 123.311C128.084 123.179 133.582 144.201 150.254 138.409C170.012 131.529 178.112 97.2461 178.112 97.2461V87.1758L188.403 92.4535C189.95 95.9222 190.736 99.6815 190.711 103.479Z" fill="url(#paint42_linear_862_3161)"/>
<path d="M177.313 91.4695C177.313 91.4695 177.166 102.804 183.59 104.7C190.015 106.597 198.056 94.5273 201.04 89.5436C204.025 84.5599 208.538 62.1407 204.26 56.7895C199.982 51.4383 191.705 52.8055 186.192 60.3031C186.192 60.2443 177.622 81.8255 177.313 91.4695Z" fill="url(#paint43_linear_862_3161)"/>
<path d="M177.66 88.1147C177.66 88.1147 185.114 82.4401 186.804 73.7223C188.495 65.0045 197.521 53.4935 197.521 53.4935C197.521 53.4935 192.773 53.0525 186.187 60.2414C179.601 67.4302 177.66 88.1147 177.66 88.1147Z" fill="url(#paint44_linear_862_3161)"/>
<path style="mix-blend-mode:multiply" opacity="0.5" d="M185.007 61.7422L190.711 63.8886C189.19 66.5015 187.995 69.291 187.153 72.1947C185.978 75.6078 184.33 78.8392 182.258 81.7945L185.007 61.7422Z" fill="url(#paint45_linear_862_3161)"/>
<path d="M177.657 85.9765C176.169 81.9587 175.412 77.7066 175.423 73.4218C175.158 65.145 177.128 58.7206 178.039 57.5005C178.951 56.2803 182.17 56.5008 183.699 58.3384C185.228 60.1761 186.331 69.2614 186.331 69.2614C186.331 69.2614 184.273 83.9772 177.657 85.9765Z" fill="url(#paint46_linear_862_3161)"/>
<path d="M186.809 73.7263C186.809 73.7263 190.631 86.3399 199.848 91.3676L201.039 89.4565C194.557 85.468 189.653 79.3598 187.161 72.168L186.809 73.7263Z" fill="url(#paint47_linear_862_3161)"/>
<path d="M180.118 63.665C179.192 63.5621 179.501 71.7066 180.648 71.3537C181.794 71.0009 181.368 63.8267 180.118 63.665Z" fill="white"/>
<path d="M38.8216 89.5136C38.6158 90.6456 63.0491 90.9837 63.6224 86.5734C64.1958 82.1631 40.4534 80.6929 38.8216 89.5136Z" fill="url(#paint48_linear_862_3161)"/>
<path style="mix-blend-mode:screen" opacity="0.2" d="M44.8606 72.2383C44.27 67.0467 44.3342 61.8014 45.0517 56.6257C46.2131 47.6728 48.6241 41.9246 50.0501 42.6891C51.4761 43.4535 51.2703 52.2742 52.1083 60.9185C52.7698 67.6369 54.0635 73.9584 54.0635 73.9584C54.0635 73.9584 47.8008 79.8682 44.8606 72.2383Z" fill="url(#paint49_linear_862_3161)"/>
<path style="mix-blend-mode:screen" opacity="0.72" d="M71.5149 180.469C75.2637 186.467 90.7146 183.277 108.135 184.983C125.556 186.688 128.526 192.333 132.201 191.201C135.876 190.069 130.069 163.828 104.048 162.049C78.0275 160.27 70.574 178.984 71.5149 180.469Z" fill="url(#paint50_linear_862_3161)"/>
<path style="mix-blend-mode:screen" opacity="0.72" d="M168.352 18.1148C168.352 18.1148 165.118 14.1014 160.708 15.1746C156.298 16.2478 155.989 30.1403 158.635 30.4931C161.281 30.846 162.399 22.7898 164.427 21.5402C166.169 20.7607 168.096 20.4906 169.984 20.761L168.352 18.1148Z" fill="url(#paint51_linear_862_3161)"/>
<path style="mix-blend-mode:screen" opacity="0.72" d="M31.8672 22.9452C32.61 22.2896 33.5031 21.8273 34.4672 21.5991C35.4313 21.3708 36.4369 21.3838 37.3948 21.6368C41.2318 22.2543 43.437 30.1194 45.3922 29.3255C47.3475 28.5317 45.9068 15.8152 40.732 12.0664C40.732 12.0664 34.0724 17.7704 31.8672 22.9452Z" fill="url(#paint52_linear_862_3161)"/>
<path d="M26.6681 41.4727C26.6681 41.4727 13.1431 56.6736 13.9957 57.7615C14.8484 58.8494 27.4914 43.0457 26.6681 41.4727Z" fill="url(#paint53_linear_862_3161)"/>
<defs>
<linearGradient id="paint0_linear_862_3161" x1="72.4727" y1="264.769" x2="78.9118" y2="213.506" gradientUnits="userSpaceOnUse">
<stop stop-color="#BCADFF"/>
<stop offset="1" stop-color="#E7D3FF"/>
</linearGradient>
<linearGradient id="paint1_linear_862_3161" x1="118.559" y1="272.018" x2="126.865" y2="205.893" gradientUnits="userSpaceOnUse">
<stop stop-color="#BBACFF"/>
<stop offset="1" stop-color="#E7D3FF"/>
</linearGradient>
<linearGradient id="paint2_linear_862_3161" x1="77.7549" y1="231.515" x2="77.7549" y2="211.301" gradientUnits="userSpaceOnUse">
<stop stop-color="#BE9DEA"/>
<stop offset="1" stop-color="#9E8CEF"/>
</linearGradient>
<linearGradient id="paint3_linear_862_3161" x1="124.756" y1="231.985" x2="124.756" y2="207.949" gradientUnits="userSpaceOnUse">
<stop stop-color="#BE9DEA"/>
<stop offset="1" stop-color="#9E8CEF"/>
</linearGradient>
<linearGradient id="paint4_linear_862_3161" x1="77.8083" y1="265.445" x2="77.8083" y2="211.477" gradientUnits="userSpaceOnUse">
<stop stop-color="#9D68C2"/>
<stop offset="1" stop-color="#CCEDFF"/>
</linearGradient>
<linearGradient id="paint5_linear_862_3161" x1="124.856" y1="270.455" x2="124.856" y2="207.755" gradientUnits="userSpaceOnUse">
<stop stop-color="#9D68C2"/>
<stop offset="1" stop-color="#CCEDFF"/>
</linearGradient>
<linearGradient id="paint6_linear_862_3161" x1="41.8915" y1="218.057" x2="52.9908" y2="129.674" gradientUnits="userSpaceOnUse">
<stop stop-color="#B78BFF"/>
<stop offset="1" stop-color="#E6D2FF"/>
</linearGradient>
<linearGradient id="paint7_linear_862_3161" x1="35.3796" y1="217.22" x2="35.3796" y2="203.166" gradientUnits="userSpaceOnUse">
<stop stop-color="#BE9DEA"/>
<stop offset="1" stop-color="#9E8CEF"/>
</linearGradient>
<linearGradient id="paint8_linear_862_3161" x1="46.4263" y1="216.388" x2="46.4263" y2="142.133" gradientUnits="userSpaceOnUse">
<stop stop-color="#9D68C2"/>
<stop offset="1" stop-color="#CCEDFF"/>
</linearGradient>
<linearGradient id="paint9_linear_862_3161" x1="32.0148" y1="255.464" x2="38.057" y2="207.317" gradientUnits="userSpaceOnUse">
<stop stop-color="#CDC1FF"/>
<stop offset="1" stop-color="#E4CFFF"/>
</linearGradient>
<linearGradient id="paint10_linear_862_3161" x1="41.4988" y1="255.212" x2="41.4988" y2="212.152" gradientUnits="userSpaceOnUse">
<stop stop-color="#BE9DEA"/>
<stop offset="1" stop-color="#9E8CEF"/>
</linearGradient>
<linearGradient id="paint11_linear_862_3161" x1="40.968" y1="241.879" x2="40.968" y2="225.237" gradientUnits="userSpaceOnUse">
<stop stop-color="#8DA4E5"/>
<stop offset="1" stop-color="#755CBB"/>
</linearGradient>
<linearGradient id="paint12_linear_862_3161" x1="42.0852" y1="241.095" x2="45.6135" y2="212.972" gradientUnits="userSpaceOnUse">
<stop stop-color="#CBC1F7"/>
<stop offset="1" stop-color="#E8DCF7"/>
</linearGradient>
<linearGradient id="paint13_linear_862_3161" x1="49.0977" y1="57.8624" x2="49.0977" y2="6.87891" gradientUnits="userSpaceOnUse">
<stop stop-color="#AB98FF"/>
<stop offset="1" stop-color="#E1D1F5"/>
</linearGradient>
<linearGradient id="paint14_linear_862_3161" x1="45.4505" y1="38.6039" x2="45.4505" y2="6.87891" gradientUnits="userSpaceOnUse">
<stop stop-color="#BE9DEA"/>
<stop offset="1" stop-color="#9E8CEF"/>
</linearGradient>
<linearGradient id="paint15_linear_862_3161" x1="154.236" y1="57.8624" x2="154.236" y2="6.87891" gradientUnits="userSpaceOnUse">
<stop stop-color="#A08AFF"/>
<stop offset="1" stop-color="#E1D1F5"/>
</linearGradient>
<linearGradient id="paint16_linear_862_3161" x1="157.947" y1="34.5946" x2="157.947" y2="6.88293" gradientUnits="userSpaceOnUse">
<stop stop-color="#BE9DEA"/>
<stop offset="1" stop-color="#9E8CEF"/>
</linearGradient>
<linearGradient id="paint17_linear_862_3161" x1="164.841" y1="60.3055" x2="164.841" y2="10.2188" gradientUnits="userSpaceOnUse">
<stop stop-color="#40EDFF"/>
<stop offset="1" stop-color="#22E0FF"/>
</linearGradient>
<linearGradient id="paint18_linear_862_3161" x1="38.4955" y1="60.3055" x2="38.4955" y2="10.2188" gradientUnits="userSpaceOnUse">
<stop stop-color="#40EEFF"/>
<stop offset="1" stop-color="#22E0FF"/>
</linearGradient>
<linearGradient id="paint19_linear_862_3161" x1="96.1767" y1="130.164" x2="112.392" y2="1.13199" gradientUnits="userSpaceOnUse">
<stop stop-color="#CBC1F7"/>
<stop offset="0.0001" stop-color="#B9A9FF"/>
<stop offset="1" stop-color="#E0C8FF"/>
</linearGradient>
<linearGradient id="paint20_linear_862_3161" x1="101.464" y1="94.7941" x2="101.464" y2="4.49982" gradientUnits="userSpaceOnUse">
<stop stop-color="#0665BD"/>
<stop offset="1" stop-color="#1A1F77"/>
</linearGradient>
<linearGradient id="paint21_linear_862_3161" x1="101.91" y1="128.972" x2="101.91" y2="52.0556" gradientUnits="userSpaceOnUse">
<stop stop-color="#9D68C2"/>
<stop offset="1" stop-color="#CCEDFF"/>
</linearGradient>
<linearGradient id="paint22_linear_862_3161" x1="50.0724" y1="118.972" x2="150.305" y2="118.972" gradientUnits="userSpaceOnUse">
<stop stop-color="#8879EA"/>
<stop offset="1" stop-color="#9E8CEF"/>
</linearGradient>
<linearGradient id="paint23_linear_862_3161" x1="100.042" y1="123.432" x2="100.042" y2="108.996" gradientUnits="userSpaceOnUse">
<stop stop-color="#8DA4E5"/>
<stop offset="1" stop-color="#755CBB"/>
</linearGradient>
<linearGradient id="paint24_linear_862_3161" x1="99.7904" y1="121.386" x2="101.657" y2="106.42" gradientUnits="userSpaceOnUse">
<stop stop-color="#5E36CC"/>
<stop offset="1" stop-color="#6C4A96"/>
</linearGradient>
<linearGradient id="paint25_linear_862_3161" x1="95.3152" y1="229.876" x2="109.399" y2="117.78" gradientUnits="userSpaceOnUse">
<stop stop-color="#A56DFF"/>
<stop offset="1" stop-color="#E4CFFF"/>
</linearGradient>
<linearGradient id="paint26_linear_862_3161" x1="125.531" y1="143.242" x2="138.88" y2="143.242" gradientUnits="userSpaceOnUse">
<stop stop-color="#8879EA"/>
<stop offset="1" stop-color="#9E8CEF"/>
</linearGradient>
<linearGradient id="paint27_linear_862_3161" x1="153.87" y1="153.187" x2="162.632" y2="83.4009" gradientUnits="userSpaceOnUse">
<stop stop-color="#AF9DFF"/>
<stop offset="1" stop-color="#E2CBFF"/>
</linearGradient>
<linearGradient id="paint28_linear_862_3161" x1="48.8792" y1="111.135" x2="48.8792" y2="90.8626" gradientUnits="userSpaceOnUse">
<stop stop-color="#8DA4E5"/>
<stop offset="1" stop-color="#755CBB"/>
</linearGradient>
<linearGradient id="paint29_linear_862_3161" x1="183.495" y1="110.246" x2="183.495" y2="85.1071" gradientUnits="userSpaceOnUse">
<stop stop-color="#BE9DEA"/>
<stop offset="1" stop-color="#9E8CEF"/>
</linearGradient>
<linearGradient id="paint30_linear_862_3161" x1="129.131" y1="49.4274" x2="129.131" y2="27.7726" gradientUnits="userSpaceOnUse">
<stop stop-color="#41EFFF"/>
<stop offset="1" stop-color="#32D3FF"/>
</linearGradient>
<linearGradient id="paint31_linear_862_3161" x1="73.3088" y1="49.4274" x2="73.3088" y2="27.7726" gradientUnits="userSpaceOnUse">
<stop stop-color="#45F4FF"/>
<stop offset="1" stop-color="#22CAFF"/>
</linearGradient>
<linearGradient id="paint32_linear_862_3161" x1="21.3578" y1="97.8912" x2="28.7819" y2="38.7486" gradientUnits="userSpaceOnUse">
<stop stop-color="#B57AFF"/>
<stop offset="1" stop-color="#9E8CEF"/>
</linearGradient>
<linearGradient id="paint33_linear_862_3161" x1="49.557" y1="97.6689" x2="53.3913" y2="81.498" gradientUnits="userSpaceOnUse">
<stop stop-color="#581ADD"/>
<stop offset="1" stop-color="#B211FE"/>
</linearGradient>
<linearGradient id="paint34_linear_862_3161" x1="57.622" y1="25.7441" x2="149.989" y2="25.7441" gradientUnits="userSpaceOnUse">
<stop/>
<stop offset="1" stop-color="#6A9BFF"/>
</linearGradient>
<linearGradient id="paint35_linear_862_3161" x1="70.683" y1="86.5343" x2="136.324" y2="86.5343" gradientUnits="userSpaceOnUse">
<stop/>
<stop offset="1" stop-color="#6A9BFF"/>
</linearGradient>
<linearGradient id="paint36_linear_862_3161" x1="165.97" y1="55.568" x2="165.97" y2="53.4805" gradientUnits="userSpaceOnUse">
<stop stop-color="#9D68C2"/>
<stop offset="1" stop-color="#CCEDFF"/>
</linearGradient>
<linearGradient id="paint37_linear_862_3161" x1="101.049" y1="230.071" x2="101.049" y2="139.88" gradientUnits="userSpaceOnUse">
<stop stop-color="#9D68C2"/>
<stop offset="1" stop-color="#CCEDFF"/>
</linearGradient>
<linearGradient id="paint38_linear_862_3161" x1="100.184" y1="228.234" x2="100.184" y2="157.199" gradientUnits="userSpaceOnUse">
<stop stop-color="#BE9DEA"/>
<stop offset="1" stop-color="#9E8CEF"/>
</linearGradient>
<radialGradient id="paint39_radial_862_3161" cx="0" cy="0" r="1" gradientUnits="userSpaceOnUse" gradientTransform="translate(101.609 219.048) scale(54.2031 54.2031)">
<stop stop-color="#3FEDFF"/>
<stop offset="1" stop-color="#22E0FF"/>
</radialGradient>
<linearGradient id="paint40_linear_862_3161" x1="99.4896" y1="138.928" x2="99.4896" y2="116.949" gradientUnits="userSpaceOnUse">
<stop stop-color="#99B4FF"/>
<stop offset="1" stop-color="#7758D0"/>
</linearGradient>
<linearGradient id="paint41_linear_862_3161" x1="101.902" y1="226.117" x2="101.902" y2="213.812" gradientUnits="userSpaceOnUse">
<stop stop-color="#D4E2FF"/>
<stop offset="1"/>
</linearGradient>
<linearGradient id="paint42_linear_862_3161" x1="158.707" y1="151.537" x2="158.707" y2="87.0876" gradientUnits="userSpaceOnUse">
<stop stop-color="#9D68C2"/>
<stop offset="1" stop-color="#CCEDFF"/>
</linearGradient>
<linearGradient id="paint43_linear_862_3161" x1="188.412" y1="105.303" x2="194.969" y2="53.0995" gradientUnits="userSpaceOnUse">
<stop stop-color="#CBC1F7"/>
<stop offset="0.0001" stop-color="#CBC1F7"/>
<stop offset="1" stop-color="#E1DCF7"/>
</linearGradient>
<linearGradient id="paint44_linear_862_3161" x1="187.583" y1="88.1147" x2="187.583" y2="53.4788" gradientUnits="userSpaceOnUse">
<stop stop-color="#BE9DEA"/>
<stop offset="1" stop-color="#9E8CEF"/>
</linearGradient>
<linearGradient id="paint45_linear_862_3161" x1="186.477" y1="81.7945" x2="186.477" y2="61.7422" gradientUnits="userSpaceOnUse">
<stop stop-color="#8DA4E5"/>
<stop offset="1" stop-color="#755CBB"/>
</linearGradient>
<linearGradient id="paint46_linear_862_3161" x1="178.73" y1="86.1088" x2="182.391" y2="57.0153" gradientUnits="userSpaceOnUse">
<stop stop-color="#CBC1F7"/>
<stop offset="1" stop-color="#E8DCF7"/>
</linearGradient>
<linearGradient id="paint47_linear_862_3161" x1="193.924" y1="91.3971" x2="193.924" y2="72.1974" gradientUnits="userSpaceOnUse">
<stop stop-color="#BE9DEA"/>
<stop offset="1" stop-color="#9E8CEF"/>
</linearGradient>
<linearGradient id="paint48_linear_862_3161" x1="51.2294" y1="90.1605" x2="51.2294" y2="83.0892" gradientUnits="userSpaceOnUse">
<stop stop-color="#9A3DE3"/>
<stop offset="1" stop-color="#EB6DFF"/>
</linearGradient>
<linearGradient id="paint49_linear_862_3161" x1="48.703" y1="76.0968" x2="50.9925" y2="42.686" gradientUnits="userSpaceOnUse">
<stop/>
<stop offset="1" stop-color="#00E3FF"/>
</linearGradient>
<linearGradient id="paint50_linear_862_3161" x1="71.4267" y1="176.632" x2="133.201" y2="176.632" gradientUnits="userSpaceOnUse">
<stop/>
<stop offset="1" stop-color="#D4E2FF"/>
</linearGradient>
<linearGradient id="paint51_linear_862_3161" x1="156.871" y1="22.7456" x2="169.911" y2="22.7456" gradientUnits="userSpaceOnUse">
<stop/>
<stop offset="1" stop-color="#D4E2FF"/>
</linearGradient>
<linearGradient id="paint52_linear_862_3161" x1="31.8672" y1="20.7254" x2="46.2302" y2="20.7254" gradientUnits="userSpaceOnUse">
<stop stop-color="#D4E2FF"/>
<stop offset="1"/>
</linearGradient>
<linearGradient id="paint53_linear_862_3161" x1="19.6856" y1="58.3575" x2="20.0167" y2="41.804" gradientUnits="userSpaceOnUse">
<stop stop-color="#CBC1F7"/>
<stop offset="1" stop-color="#E8DCF7"/>
</linearGradient>
</defs>
</svg>
