<svg width="1670" height="318" viewBox="0 0 1670 318" fill="none" xmlns="http://www.w3.org/2000/svg">
<rect width="1670" height="318" rx="44" fill="#424C60"/>
<mask id="mask0_688_11860" style="mask-type:alpha" maskUnits="userSpaceOnUse" x="0" y="0" width="1670" height="318">
<rect width="1670" height="318" rx="44" fill="#424C60"/>
</mask>
<g mask="url(#mask0_688_11860)">
<path fill-rule="evenodd" clip-rule="evenodd" d="M-319.383 395.014L277.503 -198L319.927 -155.401L-276.958 437.614L-319.383 395.014ZM-263.506 484.739L333.38 -108.275L375.805 -65.6761L-221.081 527.338L-263.506 484.739ZM466.798 -89.4473L-76.3271 450.155L-33.9025 492.754L509.222 -46.848L466.798 -89.4473ZM-8.65378 539.091L616.109 -81.6198L658.533 -39.0205L33.7708 581.69L-8.65378 539.091ZM751.15 -76.9986L73.0866 596.667L115.511 639.266L793.574 -34.3992L751.15 -76.9986ZM216.258 602.38L900.071 -76.9984L942.496 -34.3991L258.683 644.979L216.258 602.38ZM1021.84 -47.9996L350.503 618.983L392.927 661.582L1064.26 -5.40024L1021.84 -47.9996ZM502.058 619.606L1223.8 -97.4591L1266.23 -54.8598L544.483 662.206L502.058 619.606ZM1517.96 -104.296L728.577 679.966L771.001 722.565L1560.38 -61.6965L1517.96 -104.296ZM606.031 653.378L1349.23 -85.0004L1391.65 -42.4011L648.455 695.977L606.031 653.378ZM1679.73 -116.646L873.449 684.409L915.873 727.008L1722.16 -74.0465L1679.73 -116.646ZM946.133 744.055L1752.42 -56.9993L1794.84 -14.4L988.557 786.655L946.133 744.055ZM1837.52 -13.9993L1031.23 787.055L1073.66 829.655L1879.94 28.6L1837.52 -13.9993ZM1087.3 860.055L1893.59 59.0007L1936.01 101.6L1129.73 902.655L1087.3 860.055ZM1963.67 118.001L1157.38 919.055L1199.81 961.655L2006.09 160.6L1963.67 118.001Z" fill="#475269"/>
</g>
</svg>
