<svg width="189" height="176" viewBox="0 0 189 176" fill="none" xmlns="http://www.w3.org/2000/svg">
<g clip-path="url(#clip0_688_12071)">
<path d="M168.531 108.611L160.58 106.717C161.456 112.074 159.255 116.547 156.359 120.742C153.463 124.938 150.05 128.607 144.441 129.439C145.149 130.2 145.758 130.816 146.335 131.478C147.418 132.673 147.014 134.081 145.435 134.444C144.774 134.629 144.08 134.664 143.403 134.547C139.625 133.639 136.851 135.317 134.773 138.148C133.201 140.301 132.03 142.75 130.78 145.122C130.6 145.446 130.878 146.205 131.182 146.561C132.565 148.2 134.056 149.75 135.46 151.375C136.025 151.999 136.501 152.697 136.877 153.45C137.077 154.062 137.197 154.697 137.233 155.34C136.636 155.423 136.03 155.427 135.431 155.353C127.799 153.27 120.174 151.14 112.544 149.039C93.8226 143.828 75.1234 138.617 56.4468 133.409C55.486 133.128 54.616 132.599 53.924 131.876C41.2557 118.312 28.6398 104.7 15.9895 91.1266C14.9951 90.0653 14.2452 88.799 13.7926 87.4169C13.3399 86.0347 13.1956 84.5702 13.3697 83.1263C13.8038 76.9152 16.4537 71.0665 20.8372 66.6448C22.326 65.1263 24.3743 64.1508 26.2187 62.8946C25.7476 62.4586 25.0365 61.8761 24.4226 61.1998C24.1251 60.7798 23.8792 60.3254 23.6905 59.8465C24.1918 59.6047 24.7282 59.138 25.1948 59.1663C27.5236 59.3505 29.861 59.5652 32.1622 59.972C35.3895 60.5407 35.4325 60.6483 37.1666 57.9156C39.0269 55.0024 40.5981 51.9153 40.2694 48.3362C40.1501 47.0605 39.4058 45.8099 38.8203 44.6091C38.3339 43.6114 37.4958 42.7716 37.1219 41.7337C36.5836 40.2633 37.6004 39.2344 39.1513 39.5449C41.1485 39.9432 43.1337 40.3863 45.1047 40.8085C43.7895 32.6022 46.7388 25.7931 51.9463 19.9071C55.3024 16.1096 59.5717 14.9688 64.5703 16.9421C76.9304 21.8314 89.3468 26.5849 101.746 31.3929C114.005 36.136 126.268 40.8768 138.534 45.6152C140.128 46.2003 141.569 47.1391 142.748 48.3611C154.16 60.2089 165.612 72.03 177.105 83.8244C177.788 84.5265 178.814 85.3168 178.108 86.2739C177.604 86.9584 176.44 87.1783 175.548 87.5436C175.261 87.6158 174.96 87.6041 174.679 87.5099C170.33 86.4838 167.577 88.8743 165.343 92.0551C164.115 93.8091 163.252 95.8108 162.178 97.6698C161.737 98.4602 161.906 98.9658 162.513 99.5739C163.771 100.803 164.955 102.107 166.057 103.477C167.116 104.845 167.984 106.37 168.938 107.821L168.531 108.611ZM90.1812 79.174C90.7295 78.328 91.2165 77.6151 91.6621 76.8728C94.0262 72.9279 96.3389 68.9482 98.7543 65.0383C99.383 64.0249 99.3192 63.4234 98.5003 62.5492C86.3183 49.4748 74.1607 36.3796 62.0276 23.2637C60.0714 21.1516 57.9791 20.9126 55.897 22.8726C52.2085 26.3154 49.9276 31.0037 49.4956 36.0307C49.3934 36.8367 49.48 37.6553 49.7484 38.422C50.0168 39.1888 50.4597 39.8827 51.0422 40.4489C60.5601 49.8529 70.0701 59.2633 79.5723 68.68L90.1812 79.174ZM58.8398 126.213C61.7408 121.397 64.51 116.713 67.3812 112.111C68.0717 111.01 67.8873 110.406 67.0662 109.524C54.9264 96.4816 42.8077 83.4167 30.7102 70.3292C28.6581 68.1122 26.5313 67.9119 24.3503 70.0034C20.739 73.4368 18.5177 78.0792 18.11 83.0454C18.0145 83.8523 18.1072 84.6704 18.3808 85.4354C18.6544 86.2004 19.1016 86.8917 19.6872 87.4549C28.4777 96.1323 37.2586 104.819 46.0298 113.516L58.8398 126.213ZM89.7337 111.162C90.4998 111.357 91.0144 111.495 91.5371 111.619C108.445 115.664 125.362 119.682 142.257 123.785C144.298 124.278 146.169 124.349 147.833 123.082C151.899 120.09 154.705 115.692 155.707 110.744C156.308 107.863 155.013 106.216 152.08 105.637C135.93 102.484 119.78 99.3341 103.629 96.1888C101.771 95.8294 99.5131 94.7906 98.1468 95.4769C96.7806 96.1632 96.1821 98.5892 95.3043 100.281C93.4395 103.86 91.6331 107.428 89.7239 111.156L89.7337 111.162ZM95.3781 93.8192L43.3911 49.0713C43.0023 54.6435 40.1882 58.8651 37.2905 63.1559L87.1442 109.771C89.9147 104.38 92.6152 99.1499 95.3682 93.8137L95.3781 93.8192ZM167.438 85.9023L102.024 65.2769C98.9507 70.4027 95.9235 75.4575 92.8006 80.6841L158.699 98.5111C160.771 93.7735 162.882 89.1986 167.428 85.8968L167.438 85.9023ZM61.4616 127.558C61.6161 127.664 61.7805 127.756 61.9525 127.831C83.3997 133.639 104.841 139.449 126.276 145.263C127.186 145.513 127.43 145.121 127.792 144.435C129.16 141.852 130.482 139.225 132.057 136.777C133.01 135.32 134.444 134.176 135.714 132.831C135.454 132.744 135.236 132.662 135.01 132.594C128.353 130.481 121.724 128.282 115.036 126.282C105.595 123.462 96.4044 119.765 86.6095 118.169C86.1671 118.007 85.7529 117.776 85.3822 117.486C84.621 116.988 83.8253 116.545 83.0011 116.16C81.6333 115.636 80.2141 115.251 78.8173 114.814L70.5865 112.269C67.4953 117.462 64.4845 122.487 61.4517 127.552L61.4616 127.558Z" fill="#E0E7F4"/>
</g>
<defs>
<clipPath id="clip0_688_12071">
<rect width="150.402" height="116.905" fill="white" transform="translate(56.8789) rotate(29.1131)"/>
</clipPath>
</defs>
</svg>
