<svg width="655" height="642" viewBox="0 0 655 642" fill="none" xmlns="http://www.w3.org/2000/svg">
<path d="M110.324 156.839C89.094 195.361 83.9696 238.758 70.8727 280.084C57.4758 322.391 34.9497 359.514 16.5746 399.661C-4.36278 445.409 -8.3892 506.662 21.6991 549.649C50.5795 590.894 111.576 617.425 158.429 629.511C235.429 649.372 329.295 647.381 394.787 597.622C454.246 552.446 487.438 471.053 499.4 399.354C503.161 377.359 504.633 355.033 503.793 332.735C500.638 256.892 463.353 185.295 409.67 132.373C376.295 99.5104 338.263 84.2832 293.189 75.4178C268.811 70.63 243.196 68.9462 218.774 74.3855C173.598 84.4516 132.623 116.385 110.324 156.839Z" fill="#1EA698"/>
<path d="M186.38 198.708C181.755 234.606 191.528 268.606 194.284 303.799C197.113 339.824 191.009 375.126 189.179 411.253C187.095 452.418 203.447 499.308 241.166 520.935C277.366 541.682 334.474 540.488 375.691 533.411C443.429 521.777 517.636 488.127 553.963 428.711C586.944 374.767 587.416 302.918 574.055 245.546C570.029 227.916 564.072 210.824 556.282 194.544C529.544 139.275 476.95 98.8577 417.245 77.9363C380.138 64.9582 344.952 66.6791 306.181 75.5402C285.215 80.3381 264.253 87.8661 246.518 100.278C213.712 123.24 191.24 161.009 186.38 198.708Z" fill="#1EA698"/>
<path fill-rule="evenodd" clip-rule="evenodd" d="M221.793 48.944L259 10L148.803 26.6065L94.0992 96.2454C89.7929 97.2255 85.0722 98.8755 82.2313 99.8729C70.6396 103.91 67.3698 107.569 65.9338 112.971C65.0175 116.378 65.0347 117.993 65.0664 120.977C65.0712 121.43 65.0764 121.914 65.0786 122.441C64.9969 126.457 65.468 132.6 65.9421 137.535C65.0509 138.132 64.3093 138.973 63.7923 139.983C63.1617 141.213 62.8969 142.632 63.0355 144.038C63.2549 145.413 63.8693 146.673 64.7879 147.632C65.2377 148.102 65.7487 148.487 66.3005 148.777C65.1454 150.205 65.2659 152.547 66.3277 157.287C66.4162 157.684 66.5032 158.063 66.5886 158.425C66.5139 161.35 66.5821 164.279 66.7934 167.197C67.0013 178.318 69.2078 188.589 69.7035 188.419C69.8595 188.373 69.6745 186.532 69.3819 183.618L69.3818 183.618C68.9546 179.366 68.2979 172.828 68.1366 166.251C68.1395 165.54 68.1484 164.829 68.1632 164.118C68.2108 164.269 68.2575 164.417 68.3035 164.563C69.9216 169.683 70.5889 171.795 70.6128 198.462L79.4867 196.723C79.797 196.666 79.3038 192.907 78.8105 189.147C77.8292 181.667 76.8474 174.184 82.1889 195.834C82.4607 196.95 88.9843 194.944 88.4726 193.772C79.4133 173.237 78.8202 167.222 77.8732 157.616C77.7038 155.897 77.5229 154.063 77.2802 152.01C77.2213 150.684 76.8313 149.409 76.1597 148.345C75.6925 147.605 75.1037 146.99 74.4324 146.535C75.0423 145.633 75.4032 144.546 75.4595 143.406C75.4624 143.233 75.4575 143.075 75.4469 142.933C75.4683 142.596 75.4644 142.255 75.4344 141.914C75.3718 141.56 75.2802 141.214 75.1611 140.879C75.1237 140.721 75.0718 140.546 75.0019 140.355C74.7981 139.668 74.4719 139.033 74.0423 138.487C73.6127 137.941 73.0885 137.496 72.5006 137.178C71.7145 136.734 70.8566 136.472 69.9791 136.404C69.6889 133.539 69.5225 130.66 69.4805 127.776C69.4805 127.095 69.4641 126.222 69.4456 125.234C69.3709 121.245 69.261 115.384 70.0515 112.725C71.3965 108.2 79.7746 104.707 82.7849 103.778C83.1899 103.655 83.6782 103.502 84.2314 103.329C85.7468 102.855 87.7498 102.229 89.8639 101.637L73.8617 122.008L120.854 111.038L132.75 138.841C145.047 119.207 161.079 103.274 179.55 92.3324C202.43 79.0927 221.473 74.4207 233.465 73.2102C230.795 67.4748 228.81 63.4233 226.864 59.4502C225.267 56.1908 223.696 52.9842 221.793 48.944Z" fill="#1EA698"/>
</svg>
