<svg width="18" height="18" viewBox="0 0 18 18" fill="none" xmlns="http://www.w3.org/2000/svg">
<path d="M10.85 12.807V9.86818H12.1V12.1255V12.1557L12.1267 12.1697L14.2747 13.2981L13.6535 14.2771L10.85 12.807ZM14.45 5.72727V5.67727H14.4H1.8H1.75V5.72727V14.7273V14.7773H1.8H6.003H6.08534L6.04736 14.7042C5.66393 13.9665 5.45 13.1399 5.45 12.2727C5.45 10.7686 6.1072 9.32508 7.27886 8.25993C8.45068 7.19464 10.0409 6.59545 11.7 6.59545C12.6562 6.59545 13.5675 6.79043 14.3803 7.13958L14.45 7.16953V7.09364V5.72727ZM2.7 1.68636H2.75V1.63636V0.05H4.45V1.63636V1.68636H4.5H11.7H11.75V1.63636V0.05H13.45V1.63636V1.68636H13.5H14.4C14.8656 1.68636 15.3113 1.85455 15.6392 2.15264C15.9669 2.45059 16.15 2.85362 16.15 3.27273V8.26364V8.28552L16.1661 8.30036C17.2727 9.32266 17.95 10.7252 17.95 12.2727C17.95 13.7768 17.2928 15.2204 16.1211 16.2855C14.9493 17.3508 13.3591 17.95 11.7 17.95C9.99308 17.95 8.448 17.3326 7.32334 16.3264L7.3091 16.3136H7.29H1.8C1.33441 16.3136 0.888745 16.1455 0.560841 15.8474C0.233097 15.5494 0.05 15.1464 0.05 14.7273V3.27273C0.05 2.39654 0.824023 1.68636 1.8 1.68636H2.7ZM11.7 8.25455C10.5305 8.25455 9.4081 8.67684 8.57985 9.4298C7.75143 10.1829 7.285 11.2054 7.285 12.2727C7.285 14.4974 9.26498 16.2909 11.7 16.2909C12.2792 16.2909 12.8527 16.1872 13.388 15.9856C13.9233 15.7841 14.41 15.4885 14.8202 15.1157C15.2303 14.7428 15.556 14.2998 15.7782 13.812C16.0005 13.3242 16.115 12.8011 16.115 12.2727C16.115 10.048 14.135 8.25455 11.7 8.25455Z" fill="#1EA698" stroke="white" stroke-width="0.1"/>
</svg>
