<svg width="505" height="571" viewBox="0 0 505 571" fill="none" xmlns="http://www.w3.org/2000/svg">
<path d="M110.324 85.8392C89.094 124.361 83.9696 167.758 70.8727 209.084C57.4758 251.391 34.9497 288.514 16.5746 328.661C-4.36278 374.409 -8.3892 435.662 21.6991 478.649C50.5795 519.894 111.576 546.425 158.429 558.511C235.429 578.372 329.295 576.381 394.787 526.622C454.246 481.446 487.438 400.053 499.4 328.354C503.161 306.359 504.633 284.033 503.793 261.735C500.638 185.892 463.353 114.295 409.67 61.3732C376.295 28.5104 338.263 13.2832 293.189 4.41776C268.811 -0.370014 243.196 -2.05378 218.774 3.38554C173.598 13.4516 132.623 45.3847 110.324 85.8392Z" fill="#1EA698"/>
</svg>
