<svg width="24" height="13" viewBox="0 0 24 13" fill="none" xmlns="http://www.w3.org/2000/svg">
<path d="M11.1668 11.928L11.1668 11.928L1.09107 2.60188C1.09104 2.60184 1.091 2.60181 1.09097 2.60178C0.984028 2.50289 0.89826 2.38394 0.839417 2.25155C0.780538 2.11909 0.75 1.97625 0.75 1.8316C0.75 1.68694 0.780538 1.5441 0.839417 1.41164C0.898273 1.27922 0.984067 1.16025 1.09104 1.06135C1.09105 1.06134 1.09106 1.06133 1.09107 1.06131L11.1668 11.928ZM11.1668 11.928C11.3913 12.1357 11.6897 12.25 11.9981 12.25C12.3065 12.25 12.605 12.1357 12.8294 11.928L22.9089 2.60187M11.1668 11.928L22.9089 2.60187M22.9089 2.60187C22.909 2.60185 22.909 2.60183 22.909 2.60181L22.9089 2.60187ZM2.69484 1.06143L2.69475 1.06135L21.3031 1.06159L11.9981 9.67431L2.69484 1.06143ZM21.6805 0.82799C21.5406 0.88118 21.4124 0.960295 21.3033 1.06141L22.93 2.15469C22.9748 2.05577 22.9985 1.94943 22.9999 1.84178C23.0013 1.73413 22.9804 1.62727 22.9382 1.52732C22.8961 1.42736 22.8336 1.33628 22.7544 1.25928L22.9287 1.08006C22.9287 1.08004 22.9286 1.08001 22.9286 1.07998C22.822 0.976301 22.6956 0.894236 22.557 0.83787C22.4183 0.781495 22.2698 0.751762 22.1197 0.750076C21.9696 0.748389 21.8204 0.774776 21.6805 0.82799Z" stroke="#1EA698" stroke-width="0.5"/>
</svg>
